<?xml version="1.0" encoding="UTF-8" standalone="no"?>
<svg
   xmlns:dc="http://purl.org/dc/elements/1.1/"
   xmlns:cc="http://creativecommons.org/ns#"
   xmlns:rdf="http://www.w3.org/1999/02/22-rdf-syntax-ns#"
   xmlns:svg="http://www.w3.org/2000/svg"
   xmlns="http://www.w3.org/2000/svg"
   xmlns:sodipodi="http://sodipodi.sourceforge.net/DTD/sodipodi-0.dtd"
   xmlns:inkscape="http://www.inkscape.org/namespaces/inkscape"
   width="663.08167mm"
   height="272.63348mm"
   viewBox="0 0 663.08167 272.63348"
   version="1.1"
   id="svg8"
   inkscape:version="1.0.2 (7adaa710b3, 2021-03-11)"
   sodipodi:docname="json-xml-01.svg">
  <defs
     id="defs2">
    <marker
       style="overflow:visible"
       id="marker1710"
       refX="0"
       refY="0"
       orient="auto"
       inkscape:stockid="Arrow2Mend"
       inkscape:isstock="true">
      <path
         transform="scale(-0.6)"
         d="M 8.7185878,4.0337352 -2.2072895,0.01601326 8.7185884,-4.0017078 c -1.7454984,2.3720609 -1.7354408,5.6174519 -6e-7,8.035443 z"
         style="fill:#d4aa00;fill-opacity:1;fill-rule:evenodd;stroke:#d4aa00;stroke-width:0.625;stroke-linejoin:round;stroke-opacity:1"
         id="path1708" />
    </marker>
    <marker
       style="overflow:visible"
       id="marker1570"
       refX="0"
       refY="0"
       orient="auto"
       inkscape:stockid="Arrow2Mend"
       inkscape:isstock="true">
      <path
         transform="scale(-0.6)"
         d="M 8.7185878,4.0337352 -2.2072895,0.01601326 8.7185884,-4.0017078 c -1.7454984,2.3720609 -1.7354408,5.6174519 -6e-7,8.035443 z"
         style="fill:#d4aa00;fill-opacity:1;fill-rule:evenodd;stroke:#d4aa00;stroke-width:0.625;stroke-linejoin:round;stroke-opacity:1"
         id="path1568" />
    </marker>
    <marker
       style="overflow:visible"
       id="marker1508"
       refX="0"
       refY="0"
       orient="auto"
       inkscape:stockid="Arrow2Mend"
       inkscape:isstock="true"
       inkscape:collect="always">
      <path
         transform="scale(-0.6)"
         d="M 8.7185878,4.0337352 -2.2072895,0.01601326 8.7185884,-4.0017078 c -1.7454984,2.3720609 -1.7354408,5.6174519 -6e-7,8.035443 z"
         style="fill:#d4aa00;fill-opacity:1;fill-rule:evenodd;stroke:#d4aa00;stroke-width:0.625;stroke-linejoin:round;stroke-opacity:1"
         id="path1506" />
    </marker>
    <marker
       style="overflow:visible"
       id="marker1454"
       refX="0"
       refY="0"
       orient="auto"
       inkscape:stockid="Arrow2Mend"
       inkscape:isstock="true"
       inkscape:collect="always">
      <path
         transform="scale(-0.6)"
         d="M 8.7185878,4.0337352 -2.2072895,0.01601326 8.7185884,-4.0017078 c -1.7454984,2.3720609 -1.7354408,5.6174519 -6e-7,8.035443 z"
         style="fill:#d4aa00;fill-opacity:1;fill-rule:evenodd;stroke:#d4aa00;stroke-width:0.625;stroke-linejoin:round;stroke-opacity:1"
         id="path1452" />
    </marker>
    <marker
       style="overflow:visible"
       id="marker1402"
       refX="0"
       refY="0"
       orient="auto"
       inkscape:stockid="Arrow2Mend"
       inkscape:isstock="true"
       inkscape:collect="always">
      <path
         transform="scale(-0.6)"
         d="M 8.7185878,4.0337352 -2.2072895,0.01601326 8.7185884,-4.0017078 c -1.7454984,2.3720609 -1.7354408,5.6174519 -6e-7,8.035443 z"
         style="fill:#d4aa00;fill-opacity:1;fill-rule:evenodd;stroke:#d4aa00;stroke-width:0.625;stroke-linejoin:round;stroke-opacity:1"
         id="path1400" />
    </marker>
    <marker
       style="overflow:visible"
       id="Arrow2Mend"
       refX="0"
       refY="0"
       orient="auto"
       inkscape:stockid="Arrow2Mend"
       inkscape:isstock="true"
       inkscape:collect="always">
      <path
         transform="scale(-0.6)"
         d="M 8.7185878,4.0337352 -2.2072895,0.01601326 8.7185884,-4.0017078 c -1.7454984,2.3720609 -1.7354408,5.6174519 -6e-7,8.035443 z"
         style="fill:#d4aa00;fill-opacity:1;fill-rule:evenodd;stroke:#d4aa00;stroke-width:0.625;stroke-linejoin:round;stroke-opacity:1"
         id="path1107" />
    </marker>
    <rect
       x="166.94009"
       y="38.822151"
       width="191.15189"
       height="205.84476"
       id="rect867" />
    <rect
       x="12.894931"
       y="48.415188"
       width="267.50226"
       height="169.65721"
       id="rect835" />
  </defs>
  <sodipodi:namedview
     id="base"
     pagecolor="#ffffff"
     bordercolor="#666666"
     borderopacity="1.0"
     inkscape:pageopacity="0.0"
     inkscape:pageshadow="2"
     inkscape:zoom="0.35"
     inkscape:cx="1302.2523"
     inkscape:cy="574.42625"
     inkscape:document-units="mm"
     inkscape:current-layer="layer1"
     inkscape:document-rotation="0"
     showgrid="false"
     inkscape:window-width="1860"
     inkscape:window-height="1016"
     inkscape:window-x="60"
     inkscape:window-y="27"
     inkscape:window-maximized="1"
     showguides="true"
     inkscape:guide-bbox="true"
     inkscape:snap-global="false"
     fit-margin-top="0"
     fit-margin-left="0"
     fit-margin-right="0"
     fit-margin-bottom="0" />
  <metadata
     id="metadata5">
    <rdf:RDF>
      <cc:Work
         rdf:about="">
        <dc:format>image/svg+xml</dc:format>
        <dc:type
           rdf:resource="http://purl.org/dc/dcmitype/StillImage" />
        <dc:title></dc:title>
      </cc:Work>
    </rdf:RDF>
  </metadata>
  <g
     inkscape:groupmode="layer"
     id="layer2"
     inkscape:label="back"
     transform="translate(193.46971,47.667206)">
    <rect
       style="fill:#ffffff;stroke:none;stroke-width:0.529167;stroke-linecap:round"
       id="rect902"
       width="663.08167"
       height="272.63348"
       x="-193.46971"
       y="-47.667206" />
  </g>
  <g
     inkscape:label="Layer 1"
     inkscape:groupmode="layer"
     id="layer1"
     transform="translate(193.46971,47.667206)">
    <path
       id="rect1076"
       style="fill:#f9f9f9;stroke:none;stroke-width:0.529167;stroke-linecap:round"
       d="M 114.9194,-1.4708133 H 461.51593 V 205.34817 H 114.9194 Z" />
    <rect
       style="fill:#f9f9f9;stroke:none;stroke-width:0.529;stroke-linecap:round;stroke-miterlimit:4;stroke-dasharray:none"
       id="rect1074"
       width="283.8208"
       height="206.81898"
       x="-177.46655"
       y="-1.4708133" />
    <text
       xml:space="preserve"
       id="text833"
       style="font-style:normal;font-weight:normal;font-size:10.5833px;line-height:1.25;font-family:sans-serif;white-space:pre;shape-inside:url(#rect835);fill:#000000;fill-opacity:1;stroke:none;" />
    <g
       aria-label="[
  {
    &quot;nombre&quot;: &quot;Alhambra II&quot;,
    &quot;descripción&quot;: &quot;Placa con FPGA ice40HX8K&quot;,
    &quot;stock&quot;: 3
  },

  {
    &quot;nombre&quot;: &quot;Icestick&quot;,
    &quot;stock&quot;: 10
  }
]
"
       id="text841"
       style="font-style:normal;font-weight:normal;font-size:10.5833px;line-height:1.25;font-family:sans-serif;fill:#000000;fill-opacity:1;stroke:none;stroke-width:0.264583">
      <path
         d="m -158.92857,33.809007 h 2.19107 v 0.738971 h -1.24023 v 7.958145 h 1.24023 v 0.738971 h -2.19107 z"
         style="stroke-width:0.264583"
         id="path1832" />
      <path
         d="m -147.68898,56.060808 v 0.744138 h -0.3204 q -1.28673,0 -1.72598,-0.382404 -0.43408,-0.382404 -0.43408,-1.52445 v -1.235063 q 0,-0.780311 -0.27906,-1.080034 -0.27905,-0.299722 -1.01285,-0.299722 h -0.31523 v -0.738971 h 0.31523 q 0.73897,0 1.01285,-0.294554 0.27906,-0.299723 0.27906,-1.069699 v -1.240231 q 0,-1.142045 0.43408,-1.519282 0.43925,-0.382404 1.72598,-0.382404 h 0.3204 v 0.73897 h -0.3514 q -0.72864,0 -0.95084,0.227376 -0.22221,0.227376 -0.22221,0.956011 v 1.281571 q 0,0.811318 -0.23771,1.178219 -0.23255,0.366902 -0.80099,0.496092 0.57361,0.139526 0.80615,0.506428 0.23255,0.366901 0.23255,1.173051 v 1.281572 q 0,0.728635 0.22221,0.95601 0.2222,0.227376 0.95084,0.227376 z"
         style="stroke-width:0.264583"
         id="path1834" />
      <path
         d="m -144.46438,60.592817 v 2.868033 h -0.8785 v -2.868033 z m 1.95336,0 v 2.868033 h -0.8785 v -2.868033 z"
         style="fill:#0000ff"
         id="path1836" />
      <path
         d="m -135.67425,64.814768 v 3.493316 h -0.95084 v -3.46231 q 0,-0.821653 -0.3204,-1.229896 -0.32039,-0.408242 -0.96117,-0.408242 -0.76998,0 -1.2144,0.490924 -0.44441,0.490925 -0.44441,1.338416 v 3.271108 h -0.95601 v -5.787742 h 0.95601 v 0.899167 q 0.34106,-0.521931 0.80098,-0.780312 0.46509,-0.258381 1.0697,-0.258381 0.99735,0 1.50895,0.620115 0.51159,0.614947 0.51159,1.813837 z"
         style="fill:#0000ff"
         id="path1838" />
      <path
         d="m -131.52465,63.186965 q -0.7648,0 -1.20922,0.599445 -0.44442,0.594277 -0.44442,1.63297 0,1.038693 0.43925,1.638138 0.44442,0.594277 1.21439,0.594277 0.75965,0 1.20406,-0.599445 0.44442,-0.599444 0.44442,-1.63297 0,-1.028358 -0.44442,-1.627802 -0.44441,-0.604613 -1.20406,-0.604613 z m 0,-0.806149 q 1.24023,0 1.9482,0.806149 0.70796,0.80615 0.70796,2.232415 0,1.421098 -0.70796,2.232415 -0.70797,0.80615 -1.9482,0.80615 -1.24539,0 -1.95336,-0.80615 -0.7028,-0.811317 -0.7028,-2.232415 0,-1.426265 0.7028,-2.232415 0.70797,-0.806149 1.95336,-0.806149 z"
         style="fill:#0000ff"
         id="path1840" />
      <path
         d="m -122.79136,63.631381 q 0.35657,-0.640785 0.85266,-0.945675 0.49609,-0.30489 1.16788,-0.30489 0.90434,0 1.39526,0.635618 0.49093,0.63045 0.49093,1.798334 v 3.493316 h -0.95601 v -3.46231 q 0,-0.831988 -0.29456,-1.235063 -0.29455,-0.403075 -0.89916,-0.403075 -0.73897,0 -1.16789,0.490924 -0.42891,0.490925 -0.42891,1.338416 v 3.271108 h -0.95601 v -3.46231 q 0,-0.837156 -0.29456,-1.235063 -0.29455,-0.403075 -0.9095,-0.403075 -0.72863,0 -1.15755,0.496092 -0.42891,0.490925 -0.42891,1.333248 v 3.271108 h -0.95601 v -5.787742 h 0.95601 v 0.899167 q 0.32556,-0.532266 0.78031,-0.78548 0.45475,-0.253213 1.08004,-0.253213 0.63045,0 1.06969,0.320392 0.44442,0.320393 0.65629,0.930173 z"
         style="fill:#0000ff"
         id="path1842" />
      <path
         d="m -112.82817,65.41938 q 0,-1.049028 -0.43408,-1.643305 -0.42892,-0.599445 -1.18339,-0.599445 -0.75447,0 -1.18855,0.599445 -0.42892,0.594277 -0.42892,1.643305 0,1.049028 0.42892,1.648473 0.43408,0.594277 1.18855,0.594277 0.75447,0 1.18339,-0.594277 0.43408,-0.599445 0.43408,-1.648473 z m -3.23494,-2.020542 q 0.29972,-0.516763 0.75448,-0.764809 0.45991,-0.253213 1.09553,-0.253213 1.0542,0 1.71049,0.837155 0.66145,0.837156 0.66145,2.201409 0,1.364254 -0.66145,2.201409 -0.65629,0.837156 -1.71049,0.837156 -0.63562,0 -1.09553,-0.248046 -0.45476,-0.253214 -0.75448,-0.769977 v 0.868162 h -0.95601 v -8.040828 h 0.95601 z"
         style="fill:#0000ff"
         id="path1844" />
      <path
         d="m -106.91124,63.409173 q -0.1602,-0.09302 -0.3514,-0.134358 -0.18603,-0.04651 -0.41341,-0.04651 -0.80615,0 -1.24023,0.527098 -0.42891,0.521931 -0.42891,1.50378 v 3.0489 h -0.95601 v -5.787742 h 0.95601 v 0.899167 q 0.29972,-0.527098 0.78031,-0.780312 0.48059,-0.258381 1.16788,-0.258381 0.0982,0 0.21704,0.0155 0.11886,0.01034 0.26355,0.03617 z"
         style="fill:#0000ff"
         id="path1846" />
      <path
         d="m -101.18034,65.176502 v 0.465086 h -4.37181 q 0.062,0.981849 0.5891,1.498612 0.53227,0.511595 1.47795,0.511595 0.54776,0 1.05936,-0.134358 0.51676,-0.134359 1.02319,-0.403075 v 0.899167 q -0.5116,0.21704 -1.04903,0.330728 -0.53743,0.113688 -1.09037,0.113688 -1.38492,0 -2.19624,-0.80615 -0.80615,-0.80615 -0.80615,-2.180739 0,-1.421097 0.76481,-2.253085 0.76998,-0.837155 2.07222,-0.837155 1.16788,0 1.84484,0.754473 0.68213,0.749306 0.68213,2.041213 z m -0.95085,-0.279052 q -0.0103,-0.780312 -0.43924,-1.245398 -0.42375,-0.465087 -1.12655,-0.465087 -0.79581,0 -1.2764,0.449584 -0.47542,0.449583 -0.54777,1.266068 z"
         style="fill:#0000ff"
         id="path1848" />
      <path
         d="m -98.720554,60.592817 v 2.868033 h -0.878497 v -2.868033 z m 1.953363,0 v 2.868033 h -0.878497 v -2.868033 z"
         style="fill:#0000ff"
         id="path1850" />
      <path
         d="m -94.4986,66.995506 h 1.090369 v 1.312578 H -94.4986 Z m 0,-4.159939 h 1.090369 v 1.312577 H -94.4986 Z"
         style="stroke-width:0.264583"
         id="path1852" />
      <path
         d="m -86.897022,60.592817 v 2.868033 h -0.878496 v -2.868033 z m 1.953363,0 v 2.868033 h -0.878497 v -2.868033 z"
         style="fill:#c83737"
         id="path1854" />
      <path
         d="m -80.29796,61.621174 -1.415929,3.839547 h 2.837027 z m -0.589109,-1.028357 h 1.183386 l 2.94038,7.715267 h -1.085202 l -0.702797,-1.979202 h -3.477813 l -0.702797,1.979202 h -1.100704 z"
         style="fill:#c83737"
         id="path1856" />
      <path
         d="m -75.683274,60.267256 h 0.950843 v 8.040828 h -0.950843 z"
         style="fill:#c83737"
         id="path1858" />
      <path
         d="m -67.937002,64.814768 v 3.493316 h -0.950844 v -3.46231 q 0,-0.821653 -0.320392,-1.229896 -0.320393,-0.408242 -0.961179,-0.408242 -0.769976,0 -1.214392,0.490924 -0.444416,0.490925 -0.444416,1.338416 v 3.271108 h -0.956011 v -8.040828 h 0.956011 v 3.152253 q 0.341063,-0.521931 0.800982,-0.780312 0.465086,-0.258381 1.069699,-0.258381 0.997352,0 1.508947,0.620115 0.511595,0.614947 0.511595,1.813837 z"
         style="fill:#c83737"
         id="path1860" />
      <path
         d="m -63.399822,65.39871 q -1.152381,0 -1.596797,0.263549 -0.444416,0.263549 -0.444416,0.899167 0,0.506427 0.330728,0.806149 0.335896,0.294555 0.909503,0.294555 0.790646,0 1.266068,-0.558104 0.480589,-0.563271 0.480589,-1.493444 V 65.39871 Z m 1.896519,-0.39274 v 3.302114 h -0.950844 v -0.878497 q -0.32556,0.527098 -0.811317,0.780312 -0.485757,0.248046 -1.188554,0.248046 -0.888832,0 -1.41593,-0.496092 -0.52193,-0.50126 -0.52193,-1.338416 0,-0.976681 0.651121,-1.472773 0.656288,-0.496093 1.953363,-0.496093 h 1.333247 v -0.09302 q 0,-0.656288 -0.43408,-1.012855 -0.428913,-0.361734 -1.209225,-0.361734 -0.496092,0 -0.966346,0.118856 -0.470254,0.118855 -0.904335,0.356566 v -0.878496 q 0.52193,-0.201538 1.012855,-0.299723 0.490925,-0.103352 0.956011,-0.103352 1.255733,0 1.875848,0.651121 0.620116,0.651121 0.620116,1.974033 z"
         style="fill:#c83737"
         id="path1862" />
      <path
         d="m -55.033434,63.631381 q 0.356566,-0.640785 0.852658,-0.945675 0.496092,-0.30489 1.167884,-0.30489 0.904334,0 1.395259,0.635618 0.490925,0.63045 0.490925,1.798334 v 3.493316 h -0.956011 v -3.46231 q 0,-0.831988 -0.294555,-1.235063 -0.294555,-0.403075 -0.899167,-0.403075 -0.738971,0 -1.167884,0.490924 -0.428913,0.490925 -0.428913,1.338416 v 3.271108 h -0.956011 v -3.46231 q 0,-0.837156 -0.294555,-1.235063 -0.294554,-0.403075 -0.909502,-0.403075 -0.728635,0 -1.157548,0.496092 -0.428913,0.490925 -0.428913,1.333248 v 3.271108 h -0.956011 v -5.787742 h 0.956011 v 0.899167 q 0.32556,-0.532266 0.780311,-0.78548 0.454752,-0.253213 1.080034,-0.253213 0.630451,0 1.069699,0.320392 0.444416,0.320393 0.656289,0.930173 z"
         style="fill:#c83737"
         id="path1864" />
      <path
         d="m -45.07025,65.41938 q 0,-1.049028 -0.434081,-1.643305 -0.428913,-0.599445 -1.183386,-0.599445 -0.754474,0 -1.188554,0.599445 -0.428913,0.594277 -0.428913,1.643305 0,1.049028 0.428913,1.648473 0.43408,0.594277 1.188554,0.594277 0.754473,0 1.183386,-0.594277 0.434081,-0.599445 0.434081,-1.648473 z m -3.234934,-2.020542 q 0.299722,-0.516763 0.754473,-0.764809 0.459919,-0.253213 1.095537,-0.253213 1.054196,0 1.710484,0.837155 0.661457,0.837156 0.661457,2.201409 0,1.364254 -0.661457,2.201409 -0.656288,0.837156 -1.710484,0.837156 -0.635618,0 -1.095537,-0.248046 -0.454751,-0.253214 -0.754473,-0.769977 v 0.868162 h -0.956011 v -8.040828 h 0.956011 z"
         style="fill:#c83737"
         id="path1866" />
      <path
         d="m -39.153321,63.409173 q -0.160197,-0.09302 -0.351399,-0.134358 -0.186035,-0.04651 -0.41341,-0.04651 -0.80615,0 -1.240231,0.527098 -0.428913,0.521931 -0.428913,1.50378 v 3.0489 h -0.956011 v -5.787742 h 0.956011 v 0.899167 q 0.299723,-0.527098 0.780312,-0.780312 0.480589,-0.258381 1.167884,-0.258381 0.09819,0 0.21704,0.0155 0.118855,0.01034 0.263549,0.03617 z"
         style="fill:#c83737"
         id="path1868" />
      <path
         d="m -35.515308,65.39871 q -1.152381,0 -1.596797,0.263549 -0.444416,0.263549 -0.444416,0.899167 0,0.506427 0.330728,0.806149 0.335896,0.294555 0.909502,0.294555 0.790647,0 1.266069,-0.558104 0.480589,-0.563271 0.480589,-1.493444 V 65.39871 Z m 1.896519,-0.39274 v 3.302114 h -0.950844 v -0.878497 q -0.32556,0.527098 -0.811317,0.780312 -0.485757,0.248046 -1.188554,0.248046 -0.888832,0 -1.41593,-0.496092 -0.52193,-0.50126 -0.52193,-1.338416 0,-0.976681 0.651121,-1.472773 0.656288,-0.496093 1.953363,-0.496093 h 1.333247 v -0.09302 q 0,-0.656288 -0.43408,-1.012855 -0.428913,-0.361734 -1.209225,-0.361734 -0.496092,0 -0.966346,0.118856 -0.470254,0.118855 -0.904335,0.356566 v -0.878496 q 0.52193,-0.201538 1.012855,-0.299723 0.490924,-0.103352 0.956011,-0.103352 1.255733,0 1.875848,0.651121 0.620116,0.651121 0.620116,1.974033 z"
         style="fill:#c83737"
         id="path1870" />
      <path
         d="m -28.244464,60.592817 h 1.04386 v 7.715267 h -1.04386 z"
         style="fill:#c83737"
         id="path1872" />
      <path
         d="m -25.123218,60.592817 h 1.043861 v 7.715267 h -1.043861 z"
         style="fill:#c83737"
         id="path1874" />
      <path
         d="m -21.144146,60.592817 v 2.868033 h -0.878496 v -2.868033 z m 1.953363,0 v 2.868033 h -0.878496 v -2.868033 z"
         style="fill:#c83737"
         id="path1876" />
      <path
         d="m -16.922184,66.995506 h 1.090369 v 0.888832 l -0.847491,1.653641 h -0.666624 l 0.423746,-1.653641 z"
         style="stroke-width:0.264583"
         id="path1878" />
      <path
         d="m -144.46438,73.821941 v 2.868033 h -0.8785 v -2.868033 z m 1.95336,0 v 2.868033 h -0.8785 v -2.868033 z"
         style="fill:#0000ff"
         id="path1880" />
      <path
         d="m -136.67677,76.627963 v -3.131582 h 0.95084 v 8.040827 h -0.95084 v -0.868161 q -0.29972,0.516762 -0.75964,0.769976 -0.45475,0.248046 -1.09554,0.248046 -1.04903,0 -1.71048,-0.837155 -0.65629,-0.837156 -0.65629,-2.201409 0,-1.364254 0.65629,-2.201409 0.66145,-0.837156 1.71048,-0.837156 0.64079,0 1.09554,0.253214 0.45992,0.248046 0.75964,0.764809 z m -3.2401,2.020542 q 0,1.049028 0.42891,1.648473 0.43408,0.594277 1.18856,0.594277 0.75447,0 1.18855,-0.594277 0.43408,-0.599445 0.43408,-1.648473 0,-1.049029 -0.43408,-1.643306 -0.43408,-0.599444 -1.18855,-0.599444 -0.75448,0 -1.18856,0.599444 -0.42891,0.594277 -0.42891,1.643306 z"
         style="fill:#0000ff"
         id="path1882" />
      <path
         d="m -128.81681,78.405626 v 0.465087 h -4.37181 q 0.062,0.981849 0.58911,1.498611 0.53226,0.511595 1.47794,0.511595 0.54777,0 1.05936,-0.134358 0.51677,-0.134358 1.02319,-0.403075 v 0.899167 q -0.51159,0.217041 -1.04903,0.330728 -0.53743,0.113688 -1.09036,0.113688 -1.38493,0 -2.19625,-0.80615 -0.80615,-0.806149 -0.80615,-2.180738 0,-1.421097 0.76481,-2.253085 0.76998,-0.837156 2.07222,-0.837156 1.16788,0 1.84484,0.754474 0.68213,0.749306 0.68213,2.041212 z m -0.95084,-0.279052 q -0.0103,-0.780311 -0.43925,-1.245398 -0.42375,-0.465086 -1.12654,-0.465086 -0.79582,0 -1.27641,0.449583 -0.47542,0.449584 -0.54777,1.266069 z"
         style="fill:#0000ff"
         id="path1884" />
      <path
         d="m -123.5665,75.919998 v 0.899167 q -0.40308,-0.206705 -0.83716,-0.310058 -0.43408,-0.103352 -0.89916,-0.103352 -0.70797,0 -1.06453,0.21704 -0.3514,0.21704 -0.3514,0.651121 0,0.330728 0.25321,0.52193 0.25321,0.186035 1.01802,0.356567 l 0.32556,0.07235 q 1.01286,0.217041 1.4366,0.614948 0.42892,0.39274 0.42892,1.100704 0,0.80615 -0.64079,1.276404 -0.63562,0.470254 -1.75182,0.470254 -0.46509,0 -0.97152,-0.09302 -0.50126,-0.08785 -1.05936,-0.268717 v -0.981849 q 0.5271,0.273885 1.03869,0.41341 0.5116,0.134359 1.01286,0.134359 0.67179,0 1.03352,-0.227376 0.36174,-0.232543 0.36174,-0.651121 0,-0.387572 -0.26355,-0.594277 -0.25838,-0.206705 -1.14205,-0.397907 l -0.33073,-0.07751 q -0.88366,-0.186034 -1.2764,-0.568439 -0.39274,-0.387572 -0.39274,-1.059363 0,-0.816485 0.57877,-1.260901 0.57878,-0.444416 1.64331,-0.444416 0.5271,0 0.99218,0.07752 0.46509,0.07751 0.85783,0.232543 z"
         style="fill:#0000ff"
         id="path1886" />
      <path
         d="m -117.57205,75.971674 v 0.888832 q -0.40308,-0.222208 -0.81132,-0.330728 -0.40308,-0.113688 -0.81649,-0.113688 -0.925,0 -1.4366,0.589109 -0.51159,0.583942 -0.51159,1.643306 0,1.059363 0.51159,1.648473 0.5116,0.583941 1.4366,0.583941 0.41341,0 0.81649,-0.10852 0.40824,-0.113687 0.81132,-0.335895 V 81.315 q -0.39791,0.186035 -0.82682,0.279052 -0.42375,0.09302 -0.90434,0.09302 -1.30741,0 -2.07738,-0.821652 -0.76998,-0.821653 -0.76998,-2.216912 0,-1.41593 0.77514,-2.227247 0.78032,-0.811318 2.13423,-0.811318 0.43925,0 0.85783,0.09302 0.41858,0.08785 0.81132,0.268717 z"
         style="fill:#0000ff"
         id="path1888" />
      <path
         d="m -112.55429,76.638298 q -0.16019,-0.09302 -0.3514,-0.134358 -0.18603,-0.04651 -0.41341,-0.04651 -0.80615,0 -1.24023,0.527098 -0.42891,0.52193 -0.42891,1.503779 v 3.0489 h -0.95601 v -5.787742 h 0.95601 v 0.899167 q 0.29972,-0.527098 0.78031,-0.780311 0.48059,-0.258382 1.16788,-0.258382 0.0982,0 0.21705,0.0155 0.11885,0.01033 0.26354,0.03617 z"
         style="fill:#0000ff"
         id="path1890" />
      <path
         d="m -111.5466,75.749466 h 0.95084 v 5.787742 h -0.95084 z m 0,-2.253085 h 0.95084 v 1.204057 h -0.95084 z"
         style="fill:#0000ff"
         id="path1892" />
      <path
         d="m -107.69155,80.669047 v 3.06957 h -0.95601 v -7.989151 h 0.95601 v 0.878497 q 0.29972,-0.516763 0.75447,-0.764809 0.45992,-0.253214 1.09554,-0.253214 1.05419,0 1.71048,0.837156 0.66146,0.837155 0.66146,2.201409 0,1.364253 -0.66146,2.201409 -0.65629,0.837155 -1.71048,0.837155 -0.63562,0 -1.09554,-0.248046 -0.45475,-0.253214 -0.75447,-0.769976 z m 3.23493,-2.020542 q 0,-1.049029 -0.43408,-1.643306 -0.42891,-0.599444 -1.18339,-0.599444 -0.75447,0 -1.18855,0.599444 -0.42891,0.594277 -0.42891,1.643306 0,1.049028 0.42891,1.648473 0.43408,0.594277 1.18855,0.594277 0.75448,0 1.18339,-0.594277 0.43408,-0.599445 0.43408,-1.648473 z"
         style="fill:#0000ff"
         id="path1894" />
      <path
         d="m -97.728368,75.971674 v 0.888832 q -0.403075,-0.222208 -0.811317,-0.330728 -0.403075,-0.113688 -0.816485,-0.113688 -0.92501,0 -1.4366,0.589109 -0.5116,0.583942 -0.5116,1.643306 0,1.059363 0.5116,1.648473 0.51159,0.583941 1.4366,0.583941 0.41341,0 0.816485,-0.10852 0.408242,-0.113687 0.811317,-0.335895 V 81.315 q -0.397907,0.186035 -0.82682,0.279052 -0.423746,0.09302 -0.904335,0.09302 -1.307407,0 -2.077387,-0.821652 -0.76998,-0.821653 -0.76998,-2.216912 0,-1.41593 0.77515,-2.227247 0.78031,-0.811318 2.134229,-0.811318 0.439248,0 0.857826,0.09302 0.418577,0.08785 0.811317,0.268717 z"
         style="fill:#0000ff"
         id="path1896" />
      <path
         d="m -96.064393,75.749466 h 0.950844 v 5.787742 h -0.950844 z m 0,-2.253085 h 0.950844 v 1.204057 h -0.950844 z"
         style="fill:#0000ff"
         id="path1898" />
      <path
         d="m -90.886432,76.41609 q -0.764808,0 -1.209224,0.599445 -0.444416,0.594277 -0.444416,1.63297 0,1.038693 0.439248,1.638137 0.444416,0.594277 1.214392,0.594277 0.759642,0 1.204058,-0.599444 0.444415,-0.599445 0.444415,-1.63297 0,-1.028358 -0.444415,-1.627803 -0.444416,-0.604612 -1.204058,-0.604612 z m 0,-0.80615 q 1.240231,0 1.948196,0.80615 0.707965,0.80615 0.707965,2.232415 0,1.421097 -0.707965,2.232414 -0.707965,0.80615 -1.948196,0.80615 -1.245398,0 -1.953362,-0.80615 -0.702798,-0.811317 -0.702798,-2.232414 0,-1.426265 0.702798,-2.232415 0.707964,-0.80615 1.953362,-0.80615 z m 0.718301,-2.537305 h 1.028357 l -1.684646,1.943028 h -0.790647 z"
         style="fill:#0000ff"
         id="path1900" />
      <path
         d="m -81.848249,78.043892 v 3.493316 h -0.950844 v -3.46231 q 0,-0.821653 -0.320393,-1.229895 -0.320393,-0.408243 -0.961178,-0.408243 -0.769977,0 -1.214393,0.490925 -0.444415,0.490925 -0.444415,1.338415 v 3.271108 h -0.956011 v -5.787742 h 0.956011 v 0.899167 q 0.341063,-0.52193 0.800982,-0.780311 0.465086,-0.258382 1.069698,-0.258382 0.997352,0 1.508947,0.620115 0.511596,0.614948 0.511596,1.813837 z"
         style="fill:#0000ff"
         id="path1902" />
      <path
         d="m -79.042232,73.821941 v 2.868033 h -0.878497 v -2.868033 z m 1.953363,0 v 2.868033 h -0.878497 v -2.868033 z"
         style="fill:#0000ff"
         id="path1904" />
      <path
         d="m -74.820278,80.224631 h 1.090369 v 1.312577 h -1.090369 z m 0,-4.15994 h 1.090369 v 1.312578 h -1.090369 z"
         style="stroke-width:0.264583"
         id="path1906" />
      <path
         d="m -67.2187,73.821941 v 2.868033 h -0.878497 v -2.868033 z m 1.953363,0 v 2.868033 h -0.878497 v -2.868033 z"
         style="fill:#c83737"
         id="path1908" />
      <path
         d="m -62.154423,74.679767 v 2.899039 h 1.312577 q 0.728636,0 1.126543,-0.377237 0.397907,-0.377237 0.397907,-1.074866 0,-0.692462 -0.397907,-1.069699 -0.397907,-0.377237 -1.126543,-0.377237 z m -1.043861,-0.857826 h 2.356438 q 1.297074,0 1.958531,0.58911 0.666624,0.583942 0.666624,1.715652 0,1.142045 -0.666624,1.725987 -0.661457,0.583942 -1.958531,0.583942 h -1.312577 v 3.100576 h -1.043861 z"
         style="fill:#c83737"
         id="path1910" />
      <path
         d="m -56.852441,73.496381 h 0.950844 v 8.040827 h -0.950844 z"
         style="fill:#c83737"
         id="path1912" />
      <path
         d="m -51.286907,78.627834 q -1.152381,0 -1.596797,0.263549 -0.444416,0.263549 -0.444416,0.899167 0,0.506428 0.330728,0.80615 0.335896,0.294555 0.909503,0.294555 0.790646,0 1.266068,-0.558104 0.480589,-0.563271 0.480589,-1.493444 v -0.211873 z m 1.896519,-0.392739 v 3.302113 h -0.950844 v -0.878496 q -0.32556,0.527097 -0.811317,0.780311 -0.485757,0.248046 -1.188554,0.248046 -0.888832,0 -1.41593,-0.496092 -0.52193,-0.50126 -0.52193,-1.338415 0,-0.976682 0.651121,-1.472774 0.656288,-0.496092 1.953363,-0.496092 h 1.333247 v -0.09302 q 0,-0.656289 -0.43408,-1.012855 -0.428913,-0.361734 -1.209225,-0.361734 -0.496092,0 -0.966346,0.118855 -0.470254,0.118856 -0.904335,0.356567 v -0.878497 q 0.52193,-0.201537 1.012855,-0.299722 0.490925,-0.103353 0.956011,-0.103353 1.255733,0 1.875849,0.651121 0.620115,0.651121 0.620115,1.974034 z"
         style="fill:#c83737"
         id="path1914" />
      <path
         d="m -43.261583,75.971674 v 0.888832 q -0.403074,-0.222208 -0.811317,-0.330728 -0.403075,-0.113688 -0.816485,-0.113688 -0.925005,0 -1.4366,0.589109 -0.511595,0.583942 -0.511595,1.643306 0,1.059363 0.511595,1.648473 0.511595,0.583941 1.4366,0.583941 0.41341,0 0.816485,-0.10852 0.408243,-0.113687 0.811317,-0.335895 V 81.315 q -0.397907,0.186035 -0.82682,0.279052 -0.423745,0.09302 -0.904335,0.09302 -1.307409,0 -2.077386,-0.821652 -0.769976,-0.821653 -0.769976,-2.216912 0,-1.41593 0.775144,-2.227247 0.780312,-0.811318 2.13423,-0.811318 0.439248,0 0.857826,0.09302 0.418578,0.08785 0.811317,0.268717 z"
         style="fill:#c83737"
         id="path1916" />
      <path
         d="m -38.967281,78.627834 q -1.152381,0 -1.596797,0.263549 -0.444416,0.263549 -0.444416,0.899167 0,0.506428 0.330728,0.80615 0.335896,0.294555 0.909502,0.294555 0.790647,0 1.266069,-0.558104 0.480589,-0.563271 0.480589,-1.493444 v -0.211873 z m 1.896519,-0.392739 v 3.302113 h -0.950844 v -0.878496 q -0.32556,0.527097 -0.811317,0.780311 -0.485757,0.248046 -1.188554,0.248046 -0.888832,0 -1.41593,-0.496092 -0.52193,-0.50126 -0.52193,-1.338415 0,-0.976682 0.651121,-1.472774 0.656288,-0.496092 1.953363,-0.496092 h 1.333247 v -0.09302 q 0,-0.656289 -0.43408,-1.012855 -0.428913,-0.361734 -1.209225,-0.361734 -0.496092,0 -0.966346,0.118855 -0.470254,0.118856 -0.904335,0.356567 v -0.878497 q 0.52193,-0.201537 1.012855,-0.299722 0.490924,-0.103353 0.956011,-0.103353 1.255733,0 1.875848,0.651121 0.620116,0.651121 0.620116,1.974034 z"
         style="fill:#c83737"
         id="path1918" />
      <path
         d="m -27.572671,75.971674 v 0.888832 q -0.403075,-0.222208 -0.811318,-0.330728 -0.403074,-0.113688 -0.816485,-0.113688 -0.925005,0 -1.4366,0.589109 -0.511595,0.583942 -0.511595,1.643306 0,1.059363 0.511595,1.648473 0.511595,0.583941 1.4366,0.583941 0.413411,0 0.816485,-0.10852 0.408243,-0.113687 0.811318,-0.335895 V 81.315 q -0.397907,0.186035 -0.82682,0.279052 -0.423746,0.09302 -0.904335,0.09302 -1.30741,0 -2.077386,-0.821652 -0.769976,-0.821653 -0.769976,-2.216912 0,-1.41593 0.775144,-2.227247 0.780311,-0.811318 2.134229,-0.811318 0.439249,0 0.857826,0.09302 0.418578,0.08785 0.811318,0.268717 z"
         style="fill:#c83737"
         id="path1920" />
      <path
         d="m -23.665934,76.41609 q -0.764809,0 -1.209225,0.599445 -0.444416,0.594277 -0.444416,1.63297 0,1.038693 0.439248,1.638137 0.444416,0.594277 1.214393,0.594277 0.759641,0 1.204057,-0.599444 0.444416,-0.599445 0.444416,-1.63297 0,-1.028358 -0.444416,-1.627803 -0.444416,-0.604612 -1.204057,-0.604612 z m 0,-0.80615 q 1.24023,0 1.948195,0.80615 0.707965,0.80615 0.707965,2.232415 0,1.421097 -0.707965,2.232414 -0.707965,0.80615 -1.948195,0.80615 -1.245398,0 -1.953363,-0.80615 -0.702798,-0.811317 -0.702798,-2.232414 0,-1.426265 0.702798,-2.232415 0.707965,-0.80615 1.953363,-0.80615 z"
         style="fill:#c83737"
         id="path1922" />
      <path
         d="m -14.62776,78.043892 v 3.493316 h -0.950843 v -3.46231 q 0,-0.821653 -0.320393,-1.229895 -0.320393,-0.408243 -0.961179,-0.408243 -0.769976,0 -1.214392,0.490925 -0.444416,0.490925 -0.444416,1.338415 v 3.271108 h -0.956011 v -5.787742 h 0.956011 v 0.899167 q 0.341063,-0.52193 0.800982,-0.780311 0.465087,-0.258382 1.069699,-0.258382 0.997352,0 1.508947,0.620115 0.511595,0.614948 0.511595,1.813837 z"
         style="fill:#c83737"
         id="path1924" />
      <path
         d="m -9.3102755,73.821941 h 4.4338237 v 0.878497 h -3.3899631 v 2.273756 h 3.059235 v 0.878496 h -3.059235 v 3.684518 h -1.0438606 z"
         style="fill:#c83737"
         id="path1926" />
      <path
         d="m -2.1686213,74.679767 v 2.899039 h 1.31257716 q 0.72863538,0 1.12654264,-0.377237 0.39790726,-0.377237 0.39790726,-1.074866 0,-0.692462 -0.39790726,-1.069699 -0.39790726,-0.377237 -1.12654264,-0.377237 z m -1.0438606,-0.857826 h 2.35643776 q 1.29707433,0 1.95853054,0.58911 0.6666239,0.583942 0.6666239,1.715652 0,1.142045 -0.6666239,1.725987 -0.66145621,0.583942 -1.95853054,0.583942 H -2.1686213 v 3.100576 h -1.0438606 z"
         style="fill:#c83737"
         id="path1928" />
      <path
         d="M 8.4353539,80.436504 V 78.364285 H 6.730037 v -0.857826 h 2.7388422 v 3.312449 q -0.6046123,0.428913 -1.3332477,0.651121 -0.7286353,0.21704 -1.5554556,0.21704 -1.8086694,0 -2.8318595,-1.054196 -1.0180225,-1.059363 -1.0180225,-2.945547 0,-1.891351 1.0180225,-2.945547 1.0231901,-1.059364 2.8318595,-1.059364 0.7544735,0 1.4314326,0.186035 0.6821267,0.186035 1.2557333,0.547768 v 1.11104 q -0.5787742,-0.490924 -1.2298952,-0.73897 -0.651121,-0.248047 -1.3694211,-0.248047 -1.4159297,0 -2.1290622,0.790647 -0.7079649,0.790647 -0.7079649,2.356438 0,1.560623 0.7079649,2.35127 0.7131325,0.790647 2.1290622,0.790647 0.5529361,0 0.9870167,-0.09302 0.4340807,-0.09819 0.7803117,-0.299722 z"
         style="fill:#c83737"
         id="path1930" />
      <path
         d="m 13.959548,74.850299 -1.41593,3.839547 h 2.837027 z m -0.58911,-1.028358 h 1.183387 l 2.940379,7.715267 h -1.085201 l -0.702798,-1.979201 h -3.477812 l -0.702798,1.979201 h -1.100704 z"
         style="fill:#c83737"
         id="path1932" />
      <path
         d="m 21.943534,75.749466 h 0.950844 v 5.787742 h -0.950844 z m 0,-2.253085 h 0.950844 v 1.204057 h -0.950844 z"
         style="fill:#c83737"
         id="path1934" />
      <path
         d="m 29.043853,75.971674 v 0.888832 Q 28.640778,76.638298 28.232535,76.529778 27.82946,76.41609 27.41605,76.41609 q -0.925005,0 -1.4366,0.589109 -0.511595,0.583942 -0.511595,1.643306 0,1.059363 0.511595,1.648473 0.511595,0.583941 1.4366,0.583941 0.41341,0 0.816485,-0.10852 0.408243,-0.113687 0.811318,-0.335895 V 81.315 q -0.397908,0.186035 -0.826821,0.279052 -0.423745,0.09302 -0.904334,0.09302 -1.30741,0 -2.077386,-0.821652 -0.769977,-0.821653 -0.769977,-2.216912 0,-1.41593 0.775144,-2.227247 0.780312,-0.811318 2.13423,-0.811318 0.439248,0 0.857826,0.09302 0.418578,0.08785 0.811318,0.268717 z"
         style="fill:#c83737"
         id="path1936" />
      <path
         d="m 35.658418,78.405626 v 0.465087 h -4.371812 q 0.06201,0.981849 0.589109,1.498611 0.532266,0.511595 1.477942,0.511595 0.547768,0 1.059363,-0.134358 0.516763,-0.134358 1.02319,-0.403075 v 0.899167 q -0.511595,0.217041 -1.049028,0.330728 -0.537433,0.113688 -1.090369,0.113688 -1.384924,0 -2.196242,-0.80615 -0.806149,-0.806149 -0.806149,-2.180738 0,-1.421097 0.764808,-2.253085 0.769977,-0.837156 2.072219,-0.837156 1.167883,0 1.844842,0.754474 0.682127,0.749306 0.682127,2.041212 z m -0.950843,-0.279052 q -0.01033,-0.780311 -0.439248,-1.245398 -0.423746,-0.465086 -1.126543,-0.465086 -0.795815,0 -1.276404,0.449583 -0.475422,0.449584 -0.547768,1.266069 z"
         style="fill:#c83737"
         id="path1938" />
      <path
         d="m 40.221423,74.731444 -2.63549,4.118598 h 2.63549 z m -0.273884,-0.909503 h 1.312577 v 5.028101 h 1.100704 v 0.868161 h -1.100704 v 1.819005 h -1.038693 v -1.819005 h -3.482981 v -1.007687 z"
         style="fill:#c83737"
         id="path1940" />
      <path
         d="m 46.324391,74.509236 q -0.80615,0 -1.214392,0.795814 -0.403075,0.790647 -0.403075,2.382276 0,1.586462 0.403075,2.382276 0.408242,0.790647 1.214392,0.790647 0.811318,0 1.214392,-0.790647 0.408243,-0.795814 0.408243,-2.382276 0,-1.591629 -0.408243,-2.382276 -0.403074,-0.795814 -1.214392,-0.795814 z m 0,-0.826821 q 1.297074,0 1.979201,1.028358 0.687295,1.02319 0.687295,2.976553 0,1.948195 -0.687295,2.976553 -0.682127,1.02319 -1.979201,1.02319 -1.297074,0 -1.984369,-1.02319 -0.682126,-1.028358 -0.682126,-2.976553 0,-1.953363 0.682126,-2.976553 0.687295,-1.028358 1.984369,-1.028358 z"
         style="fill:#c83737"
         id="path1942" />
      <path
         d="m 50.737546,73.821941 h 1.04386 v 3.162588 h 3.793038 v -3.162588 h 1.043861 v 7.715267 h -1.043861 v -3.674183 h -3.793038 v 3.674183 h -1.04386 z"
         style="fill:#c83737"
         id="path1944" />
      <path
         d="m 58.323622,73.821941 h 1.121375 l 1.917189,2.868033 1.927525,-2.868033 h 1.121375 l -2.480461,3.705189 2.645825,4.010078 h -1.121375 l -2.170403,-3.281443 -2.185906,3.281443 h -1.126543 l 2.754345,-4.118598 z"
         style="fill:#c83737"
         id="path1946" />
      <path
         d="m 68.276479,77.873361 q -0.744139,0 -1.173052,0.397907 -0.423745,0.397907 -0.423745,1.095537 0,0.697629 0.423745,1.095537 0.428913,0.397907 1.173052,0.397907 0.744138,0 1.173051,-0.397907 0.428913,-0.403075 0.428913,-1.095537 0,-0.69763 -0.428913,-1.095537 -0.423746,-0.397907 -1.173051,-0.397907 z m -1.043861,-0.444416 q -0.671792,-0.165364 -1.049028,-0.625283 -0.372069,-0.459919 -0.372069,-1.121375 0,-0.925005 0.656288,-1.462438 0.661456,-0.537434 1.80867,-0.537434 1.15238,0 1.808669,0.537434 0.656289,0.537433 0.656289,1.462438 0,0.661456 -0.377237,1.121375 -0.372069,0.459919 -1.038693,0.625283 0.754473,0.175699 1.173051,0.687294 0.423745,0.511595 0.423745,1.250566 0,1.121375 -0.687294,1.72082 -0.682127,0.599444 -1.95853,0.599444 -1.276404,0 -1.963699,-0.599444 -0.682126,-0.599445 -0.682126,-1.72082 0,-0.738971 0.423745,-1.250566 0.423745,-0.511595 1.178219,-0.687294 z m -0.382404,-1.648473 q 0,0.599445 0.372069,0.93534 0.377236,0.335896 1.054196,0.335896 0.671791,0 1.049028,-0.335896 0.382404,-0.335895 0.382404,-0.93534 0,-0.599445 -0.382404,-0.935341 -0.377237,-0.335895 -1.049028,-0.335895 -0.67696,0 -1.054196,0.335895 -0.372069,0.335896 -0.372069,0.935341 z"
         style="fill:#c83737"
         id="path1948" />
      <path
         d="m 72.689633,73.821941 h 1.043861 v 3.260773 l 3.462309,-3.260773 h 1.343583 l -3.829211,3.596669 4.103096,4.118598 h -1.374589 l -3.705188,-3.715524 v 3.715524 h -1.043861 z"
         style="fill:#c83737"
         id="path1950" />
      <path
         d="m 80.492741,73.821941 v 2.868033 h -0.878497 v -2.868033 z m 1.953363,0 v 2.868033 h -0.878497 v -2.868033 z"
         style="fill:#c83737"
         id="path1952" />
      <path
         d="m 84.714687,80.224631 h 1.090369 v 0.888832 l -0.84749,1.65364 h -0.666624 l 0.423745,-1.65364 z"
         style="stroke-width:0.264583"
         id="path1954" />
      <path
         d="m -144.46438,87.051066 v 2.868033 h -0.8785 v -2.868033 z m 1.95336,0 v 2.868033 h -0.8785 v -2.868033 z"
         style="fill:#0000ff"
         id="path1956" />
      <path
         d="m -136.79562,89.149122 v 0.899167 q -0.40308,-0.206705 -0.83716,-0.310057 -0.43408,-0.103353 -0.89917,-0.103353 -0.70796,0 -1.06453,0.217041 -0.3514,0.21704 -0.3514,0.651121 0,0.330728 0.25322,0.52193 0.25321,0.186034 1.01802,0.356566 l 0.32556,0.07235 q 1.01285,0.21704 1.4366,0.614947 0.42891,0.39274 0.42891,1.100705 0,0.80615 -0.64078,1.276404 -0.63562,0.470254 -1.75183,0.470254 -0.46508,0 -0.97151,-0.09302 -0.50126,-0.08785 -1.05937,-0.268717 v -0.981849 q 0.5271,0.273884 1.0387,0.41341 0.51159,0.134358 1.01285,0.134358 0.67179,0 1.03353,-0.227375 0.36173,-0.232544 0.36173,-0.651121 0,-0.387572 -0.26355,-0.594277 -0.25838,-0.206705 -1.14204,-0.397908 l -0.33073,-0.07751 q -0.88367,-0.186035 -1.2764,-0.568439 -0.39274,-0.387572 -0.39274,-1.059363 0,-0.816485 0.57877,-1.260901 0.57877,-0.444416 1.6433,-0.444416 0.5271,0 0.99219,0.07751 0.46509,0.07752 0.85783,0.232543 z"
         style="fill:#0000ff"
         id="path1958" />
      <path
         d="m -134.02578,87.335285 v 1.643306 h 1.95853 v 0.73897 h -1.95853 v 3.141917 q 0,0.707965 0.1912,0.909503 0.19637,0.201537 0.79065,0.201537 h 0.97668 v 0.795815 h -0.97668 q -1.1007,0 -1.51928,-0.408243 -0.41858,-0.41341 -0.41858,-1.498612 v -3.141917 h -0.69763 v -0.73897 h 0.69763 v -1.643306 z"
         style="fill:#0000ff"
         id="path1960" />
      <path
         d="m -128.56876,89.645214 q -0.76481,0 -1.20923,0.599445 -0.44442,0.594277 -0.44442,1.63297 0,1.038693 0.43925,1.638138 0.44442,0.594277 1.2144,0.594277 0.75964,0 1.20405,-0.599445 0.44442,-0.599444 0.44442,-1.63297 0,-1.028357 -0.44442,-1.627802 -0.44441,-0.604613 -1.20405,-0.604613 z m 0,-0.806149 q 1.24023,0 1.94819,0.806149 0.70797,0.80615 0.70797,2.232415 0,1.421098 -0.70797,2.232415 -0.70796,0.80615 -1.94819,0.80615 -1.2454,0 -1.95337,-0.80615 -0.70279,-0.811317 -0.70279,-2.232415 0,-1.426265 0.70279,-2.232415 0.70797,-0.806149 1.95337,-0.806149 z"
         style="fill:#0000ff"
         id="path1962" />
      <path
         d="m -120.17654,89.200799 v 0.888831 q -0.40307,-0.222208 -0.81132,-0.330728 -0.40307,-0.113688 -0.81648,-0.113688 -0.92501,0 -1.4366,0.58911 -0.5116,0.583942 -0.5116,1.643305 0,1.059364 0.5116,1.648473 0.51159,0.583942 1.4366,0.583942 0.41341,0 0.81648,-0.10852 0.40825,-0.113688 0.81132,-0.335896 v 0.878497 q -0.3979,0.186034 -0.82682,0.279052 -0.42374,0.09302 -0.90433,0.09302 -1.30741,0 -2.07739,-0.821653 -0.76998,-0.821653 -0.76998,-2.216912 0,-1.415929 0.77515,-2.227247 0.78031,-0.811317 2.13423,-0.811317 0.43925,0 0.85782,0.09302 0.41858,0.08785 0.81132,0.268717 z"
         style="fill:#0000ff"
         id="path1964" />
      <path
         d="m -118.54874,86.725505 h 0.95602 v 4.749049 l 2.83702,-2.495963 h 1.21439 l -3.06957,2.707836 3.19877,3.079906 h -1.24024 l -2.94037,-2.826692 v 2.826692 h -0.95602 z"
         style="fill:#0000ff"
         id="path1966" />
      <path
         d="m -111.47425,87.051066 v 2.868033 h -0.8785 v -2.868033 z m 1.95336,0 v 2.868033 h -0.8785 v -2.868033 z"
         style="fill:#0000ff"
         id="path1968" />
      <path
         d="m -107.2523,93.453755 h 1.09037 v 1.312578 h -1.09037 z m 0,-4.159939 h 1.09037 v 1.312577 h -1.09037 z"
         style="stroke-width:0.264583"
         id="path1970" />
      <path
         d="m -97.252947,90.606393 q 0.749306,0.160197 1.167883,0.666624 0.423746,0.506427 0.423746,1.250566 0,1.142045 -0.785479,1.767328 -0.78548,0.625283 -2.232415,0.625283 -0.485757,0 -1.00252,-0.09819 -0.511598,-0.09302 -1.059368,-0.28422 v -1.007687 q 0.43409,0.253214 0.950848,0.382405 0.516763,0.12919 1.080034,0.12919 0.981849,0 1.493444,-0.387572 0.516763,-0.387572 0.516763,-1.126542 0,-0.682127 -0.480589,-1.064532 -0.475422,-0.387572 -1.32808,-0.387572 h -0.899168 v -0.857826 h 0.940509 q 0.769976,0 1.178218,-0.30489 0.408243,-0.310057 0.408243,-0.888831 0,-0.594277 -0.423745,-0.909503 -0.418578,-0.320393 -1.204057,-0.320393 -0.428914,0 -0.919838,0.09302 -0.490925,0.09302 -1.080032,0.289387 v -0.930173 q 0.594275,-0.165364 1.111038,-0.248046 0.52193,-0.08268 0.981849,-0.08268 1.188554,0 1.881016,0.542601 0.692462,0.537433 0.692462,1.45727 0,0.640786 -0.366902,1.085202 -0.366901,0.439248 -1.04386,0.60978 z"
         style="fill:#008000"
         id="path1972" />
      <path
         d="m -151.77658,108.97731 h 0.36174 q 0.72347,0 0.94051,-0.22221 0.2222,-0.22221 0.2222,-0.96118 v -1.28157 q 0,-0.80615 0.23255,-1.17305 0.23254,-0.3669 0.80615,-0.50643 -0.57361,-0.12919 -0.80615,-0.49609 -0.23255,-0.3669 -0.23255,-1.17822 v -1.28157 q 0,-0.73381 -0.2222,-0.95601 -0.21704,-0.22738 -0.94051,-0.22738 h -0.36174 v -0.73897 h 0.32556 q 1.28674,0 1.71566,0.3824 0.43408,0.37724 0.43408,1.51929 v 1.24023 q 0,0.76997 0.27905,1.0697 0.27905,0.29455 1.01285,0.29455 h 0.3204 v 0.73897 h -0.3204 q -0.7338,0 -1.01285,0.29972 -0.27905,0.29973 -0.27905,1.08004 v 1.23506 q 0,1.14205 -0.43408,1.52445 -0.42892,0.3824 -1.71566,0.3824 h -0.32556 z"
         style="stroke-width:0.264583"
         id="path1974" />
      <path
         d="m -145.12067,106.68288 h 1.09037 v 0.88883 l -0.84749,1.65364 h -0.66663 l 0.42375,-1.65364 z"
         style="stroke-width:0.264583"
         id="path1976" />
      <path
         d="m -147.68898,135.43556 v 0.74413 h -0.3204 q -1.28673,0 -1.72598,-0.3824 -0.43408,-0.38241 -0.43408,-1.52445 v -1.23506 q 0,-0.78032 -0.27906,-1.08004 -0.27905,-0.29972 -1.01285,-0.29972 h -0.31523 v -0.73897 h 0.31523 q 0.73897,0 1.01285,-0.29456 0.27906,-0.29972 0.27906,-1.06969 v -1.24023 q 0,-1.14205 0.43408,-1.51929 0.43925,-0.3824 1.72598,-0.3824 h 0.3204 v 0.73897 h -0.3514 q -0.72864,0 -0.95084,0.22738 -0.22221,0.22737 -0.22221,0.95601 v 1.28157 q 0,0.81132 -0.23771,1.17822 -0.23255,0.3669 -0.80099,0.49609 0.57361,0.13952 0.80615,0.50643 0.23255,0.3669 0.23255,1.17305 v 1.28157 q 0,0.72863 0.22221,0.95601 0.2222,0.22738 0.95084,0.22738 z"
         style="stroke-width:0.264583"
         id="path1978" />
      <path
         d="m -144.46438,139.96756 v 2.86804 h -0.8785 v -2.86804 z m 1.95336,0 v 2.86804 h -0.8785 v -2.86804 z"
         style="fill:#0000ff"
         id="path1980" />
      <path
         d="m -135.67425,144.18952 v 3.49331 h -0.95084 v -3.46231 q 0,-0.82165 -0.3204,-1.22989 -0.32039,-0.40825 -0.96117,-0.40825 -0.76998,0 -1.2144,0.49093 -0.44441,0.49092 -0.44441,1.33841 v 3.27111 h -0.95601 v -5.78774 h 0.95601 v 0.89917 q 0.34106,-0.52193 0.80098,-0.78032 0.46509,-0.25838 1.0697,-0.25838 0.99735,0 1.50895,0.62012 0.51159,0.61495 0.51159,1.81384 z"
         style="fill:#0000ff"
         id="path1982" />
      <path
         d="m -131.52465,142.56171 q -0.7648,0 -1.20922,0.59945 -0.44442,0.59427 -0.44442,1.63297 0,1.03869 0.43925,1.63814 0.44442,0.59427 1.21439,0.59427 0.75965,0 1.20406,-0.59944 0.44442,-0.59945 0.44442,-1.63297 0,-1.02836 -0.44442,-1.6278 -0.44441,-0.60462 -1.20406,-0.60462 z m 0,-0.80615 q 1.24023,0 1.9482,0.80615 0.70796,0.80615 0.70796,2.23242 0,1.42109 -0.70796,2.23241 -0.70797,0.80615 -1.9482,0.80615 -1.24539,0 -1.95336,-0.80615 -0.7028,-0.81132 -0.7028,-2.23241 0,-1.42627 0.7028,-2.23242 0.70797,-0.80615 1.95336,-0.80615 z"
         style="fill:#0000ff"
         id="path1984" />
      <path
         d="m -122.79136,143.00613 q 0.35657,-0.64079 0.85266,-0.94568 0.49609,-0.30489 1.16788,-0.30489 0.90434,0 1.39526,0.63562 0.49093,0.63045 0.49093,1.79834 v 3.49331 h -0.95601 v -3.46231 q 0,-0.83199 -0.29456,-1.23506 -0.29455,-0.40308 -0.89916,-0.40308 -0.73897,0 -1.16789,0.49093 -0.42891,0.49092 -0.42891,1.33841 v 3.27111 h -0.95601 v -3.46231 q 0,-0.83715 -0.29456,-1.23506 -0.29455,-0.40308 -0.9095,-0.40308 -0.72863,0 -1.15755,0.4961 -0.42891,0.49092 -0.42891,1.33324 v 3.27111 h -0.95601 v -5.78774 h 0.95601 v 0.89917 q 0.32556,-0.53227 0.78031,-0.78548 0.45475,-0.25322 1.08004,-0.25322 0.63045,0 1.06969,0.3204 0.44442,0.32039 0.65629,0.93017 z"
         style="fill:#0000ff"
         id="path1986" />
      <path
         d="m -112.82817,144.79413 q 0,-1.04903 -0.43408,-1.64331 -0.42892,-0.59944 -1.18339,-0.59944 -0.75447,0 -1.18855,0.59944 -0.42892,0.59428 -0.42892,1.64331 0,1.04903 0.42892,1.64847 0.43408,0.59428 1.18855,0.59428 0.75447,0 1.18339,-0.59428 0.43408,-0.59944 0.43408,-1.64847 z m -3.23494,-2.02054 q 0.29972,-0.51677 0.75448,-0.76481 0.45991,-0.25322 1.09553,-0.25322 1.0542,0 1.71049,0.83716 0.66145,0.83715 0.66145,2.20141 0,1.36425 -0.66145,2.20141 -0.65629,0.83715 -1.71049,0.83715 -0.63562,0 -1.09553,-0.24804 -0.45476,-0.25322 -0.75448,-0.76998 v 0.86816 h -0.95601 V 139.642 h 0.95601 z"
         style="fill:#0000ff"
         id="path1988" />
      <path
         d="m -106.91124,142.78392 q -0.1602,-0.093 -0.3514,-0.13436 -0.18603,-0.0465 -0.41341,-0.0465 -0.80615,0 -1.24023,0.5271 -0.42891,0.52193 -0.42891,1.50378 v 3.0489 h -0.95601 v -5.78774 h 0.95601 v 0.89917 q 0.29972,-0.5271 0.78031,-0.78032 0.48059,-0.25838 1.16788,-0.25838 0.0982,0 0.21704,0.0155 0.11886,0.0103 0.26355,0.0362 z"
         style="fill:#0000ff"
         id="path1990" />
      <path
         d="m -101.18034,144.55125 v 0.46509 h -4.37181 q 0.062,0.98184 0.5891,1.49861 0.53227,0.51159 1.47795,0.51159 0.54776,0 1.05936,-0.13436 0.51676,-0.13435 1.02319,-0.40307 v 0.89917 q -0.5116,0.21704 -1.04903,0.33072 -0.53743,0.11369 -1.09037,0.11369 -1.38492,0 -2.19624,-0.80615 -0.80615,-0.80615 -0.80615,-2.18074 0,-1.42109 0.76481,-2.25308 0.76998,-0.83716 2.07222,-0.83716 1.16788,0 1.84484,0.75448 0.68213,0.7493 0.68213,2.04121 z m -0.95085,-0.27905 q -0.0103,-0.78031 -0.43924,-1.2454 -0.42375,-0.46509 -1.12655,-0.46509 -0.79581,0 -1.2764,0.44959 -0.47542,0.44958 -0.54777,1.26606 z"
         style="fill:#0000ff"
         id="path1992" />
      <path
         d="m -98.720554,139.96756 v 2.86804 h -0.878497 v -2.86804 z m 1.953363,0 v 2.86804 h -0.878497 v -2.86804 z"
         style="fill:#0000ff"
         id="path1994" />
      <path
         d="m -94.4986,146.37025 h 1.090369 v 1.31258 H -94.4986 Z m 0,-4.15994 h 1.090369 v 1.31258 H -94.4986 Z"
         style="stroke-width:0.264583"
         id="path1996" />
      <path
         d="m -86.897022,139.96756 v 2.86804 h -0.878496 v -2.86804 z m 1.953363,0 v 2.86804 h -0.878497 v -2.86804 z"
         style="stroke:#c83737"
         id="path1998" />
      <path
         d="m -82.876605,139.96756 h 1.04386 v 7.71527 h -1.04386 z"
         style="stroke:#c83737"
         id="path2000" />
      <path
         d="m -75.631593,142.1173 v 0.88883 q -0.403075,-0.22221 -0.811317,-0.33073 -0.403075,-0.11369 -0.816485,-0.11369 -0.925006,0 -1.436601,0.58911 -0.511595,0.58394 -0.511595,1.64331 0,1.05936 0.511595,1.64847 0.511595,0.58394 1.436601,0.58394 0.41341,0 0.816485,-0.10852 0.408242,-0.11369 0.811317,-0.33589 v 0.87849 q -0.397907,0.18604 -0.82682,0.27905 -0.423746,0.093 -0.904335,0.093 -1.30741,0 -2.077386,-0.82165 -0.769976,-0.82165 -0.769976,-2.21691 0,-1.41593 0.775144,-2.22725 0.780311,-0.81132 2.13423,-0.81132 0.439248,0 0.857826,0.093 0.418577,0.0879 0.811317,0.26872 z"
         style="stroke:#c83737"
         id="path2002" />
      <path
         d="m -69.017035,144.55125 v 0.46509 h -4.371812 q 0.06201,0.98184 0.589109,1.49861 0.532266,0.51159 1.477941,0.51159 0.547769,0 1.059364,-0.13436 0.516763,-0.13435 1.02319,-0.40307 v 0.89917 q -0.511595,0.21704 -1.049028,0.33072 -0.537433,0.11369 -1.090369,0.11369 -1.384924,0 -2.196242,-0.80615 -0.80615,-0.80615 -0.80615,-2.18074 0,-1.42109 0.764809,-2.25308 0.769977,-0.83716 2.072218,-0.83716 1.167884,0 1.844843,0.75448 0.682127,0.7493 0.682127,2.04121 z m -0.950843,-0.27905 q -0.01034,-0.78031 -0.439249,-1.2454 -0.423745,-0.46509 -1.126542,-0.46509 -0.795815,0 -1.276404,0.44959 -0.475422,0.44958 -0.547769,1.26606 z"
         style="stroke:#c83737"
         id="path2004" />
      <path
         d="m -63.766721,142.06562 v 0.89917 q -0.403075,-0.20671 -0.837155,-0.31006 -0.434081,-0.10335 -0.899167,-0.10335 -0.707965,0 -1.064531,0.21704 -0.351399,0.21704 -0.351399,0.65112 0,0.33073 0.253214,0.52193 0.253213,0.18603 1.018022,0.35657 l 0.325561,0.0723 q 1.012854,0.21704 1.4366,0.61495 0.428913,0.39274 0.428913,1.1007 0,0.80615 -0.640786,1.27641 -0.635618,0.47025 -1.751825,0.47025 -0.465087,0 -0.971514,-0.093 -0.50126,-0.0878 -1.059364,-0.26871 v -0.98185 q 0.527098,0.27388 1.038693,0.41341 0.511595,0.13436 1.012855,0.13436 0.671792,0 1.033526,-0.22738 0.361733,-0.23254 0.361733,-0.65112 0,-0.38757 -0.263549,-0.59428 -0.258381,-0.2067 -1.142045,-0.3979 l -0.330728,-0.0775 q -0.883664,-0.18603 -1.276404,-0.56844 -0.39274,-0.38757 -0.39274,-1.05936 0,-0.81649 0.578775,-1.2609 0.578774,-0.44442 1.643305,-0.44442 0.527098,0 0.992184,0.0775 0.465087,0.0775 0.857826,0.23254 z"
         style="stroke:#c83737"
         id="path2006" />
      <path
         d="m -60.996878,140.25178 v 1.64331 h 1.95853 v 0.73897 h -1.95853 v 3.14192 q 0,0.70796 0.191202,0.9095 0.19637,0.20154 0.790647,0.20154 h 0.976681 v 0.79581 h -0.976681 q -1.100705,0 -1.519282,-0.40824 -0.418578,-0.41341 -0.418578,-1.49861 v -3.14192 h -0.69763 v -0.73897 h 0.69763 v -1.64331 z"
         style="stroke:#c83737"
         id="path2008" />
      <path
         d="m -57.782616,141.89509 h 0.950843 v 5.78774 h -0.950843 z m 0,-2.25309 h 0.950843 v 1.20406 h -0.950843 z"
         style="stroke:#c83737"
         id="path2010" />
      <path
         d="m -50.68229,142.1173 v 0.88883 q -0.403075,-0.22221 -0.811318,-0.33073 -0.403075,-0.11369 -0.816485,-0.11369 -0.925005,0 -1.4366,0.58911 -0.511595,0.58394 -0.511595,1.64331 0,1.05936 0.511595,1.64847 0.511595,0.58394 1.4366,0.58394 0.41341,0 0.816485,-0.10852 0.408243,-0.11369 0.811318,-0.33589 v 0.87849 q -0.397908,0.18604 -0.826821,0.27905 -0.423745,0.093 -0.904334,0.093 -1.30741,0 -2.077386,-0.82165 -0.769977,-0.82165 -0.769977,-2.21691 0,-1.41593 0.775144,-2.22725 0.780312,-0.81132 2.13423,-0.81132 0.439249,0 0.857826,0.093 0.418578,0.0879 0.811318,0.26872 z"
         style="stroke:#c83737"
         id="path2012" />
      <path
         d="m -49.054492,139.642 h 0.956011 v 4.74905 l 2.837027,-2.49596 h 1.214392 l -3.06957,2.70784 3.198761,3.0799 h -1.240231 l -2.940379,-2.82669 v 2.82669 h -0.956011 z"
         style="stroke:#c83737"
         id="path2014" />
      <path
         d="m -41.980007,139.96756 v 2.86804 h -0.878496 v -2.86804 z m 1.953363,0 v 2.86804 h -0.878496 v -2.86804 z"
         style="stroke:#c83737"
         id="path2016" />
      <path
         d="m -37.758061,146.37025 h 1.09037 v 0.88884 l -0.847491,1.65364 h -0.666624 l 0.423745,-1.65364 z"
         style="stroke-width:0.264583"
         id="path2018" />
      <path
         d="m -144.46438,153.19669 v 2.86803 h -0.8785 v -2.86803 z m 1.95336,0 v 2.86803 h -0.8785 v -2.86803 z"
         style="fill:#0000ff"
         id="path2020" />
      <path
         d="m -136.79562,155.29475 v 0.89916 q -0.40308,-0.2067 -0.83716,-0.31006 -0.43408,-0.10335 -0.89917,-0.10335 -0.70796,0 -1.06453,0.21704 -0.3514,0.21704 -0.3514,0.65112 0,0.33073 0.25322,0.52193 0.25321,0.18604 1.01802,0.35657 l 0.32556,0.0724 q 1.01285,0.21704 1.4366,0.61494 0.42891,0.39274 0.42891,1.10071 0,0.80615 -0.64078,1.2764 -0.63562,0.47026 -1.75183,0.47026 -0.46508,0 -0.97151,-0.093 -0.50126,-0.0878 -1.05937,-0.26872 v -0.98185 q 0.5271,0.27389 1.0387,0.41341 0.51159,0.13436 1.01285,0.13436 0.67179,0 1.03353,-0.22737 0.36173,-0.23255 0.36173,-0.65112 0,-0.38758 -0.26355,-0.59428 -0.25838,-0.20671 -1.14204,-0.39791 l -0.33073,-0.0775 q -0.88367,-0.18604 -1.2764,-0.56844 -0.39274,-0.38757 -0.39274,-1.05937 0,-0.81648 0.57877,-1.2609 0.57877,-0.44441 1.6433,-0.44441 0.5271,0 0.99219,0.0775 0.46509,0.0775 0.85783,0.23255 z"
         style="fill:#0000ff"
         id="path2022" />
      <path
         d="m -134.02578,153.48091 v 1.6433 h 1.95853 v 0.73897 h -1.95853 v 3.14192 q 0,0.70797 0.1912,0.9095 0.19637,0.20154 0.79065,0.20154 h 0.97668 v 0.79582 h -0.97668 q -1.1007,0 -1.51928,-0.40825 -0.41858,-0.41341 -0.41858,-1.49861 v -3.14192 h -0.69763 v -0.73897 h 0.69763 v -1.6433 z"
         style="fill:#0000ff"
         id="path2024" />
      <path
         d="m -128.56876,155.79084 q -0.76481,0 -1.20923,0.59944 -0.44442,0.59428 -0.44442,1.63297 0,1.03869 0.43925,1.63814 0.44442,0.59428 1.2144,0.59428 0.75964,0 1.20405,-0.59945 0.44442,-0.59944 0.44442,-1.63297 0,-1.02836 -0.44442,-1.6278 -0.44441,-0.60461 -1.20405,-0.60461 z m 0,-0.80615 q 1.24023,0 1.94819,0.80615 0.70797,0.80615 0.70797,2.23241 0,1.4211 -0.70797,2.23242 -0.70796,0.80615 -1.94819,0.80615 -1.2454,0 -1.95337,-0.80615 -0.70279,-0.81132 -0.70279,-2.23242 0,-1.42626 0.70279,-2.23241 0.70797,-0.80615 1.95337,-0.80615 z"
         style="fill:#0000ff"
         id="path2026" />
      <path
         d="m -120.17654,155.34642 v 0.88883 q -0.40307,-0.2222 -0.81132,-0.33072 -0.40307,-0.11369 -0.81648,-0.11369 -0.92501,0 -1.4366,0.58911 -0.5116,0.58394 -0.5116,1.6433 0,1.05937 0.5116,1.64847 0.51159,0.58395 1.4366,0.58395 0.41341,0 0.81648,-0.10852 0.40825,-0.11369 0.81132,-0.3359 v 0.8785 q -0.3979,0.18603 -0.82682,0.27905 -0.42374,0.093 -0.90433,0.093 -1.30741,0 -2.07739,-0.82166 -0.76998,-0.82165 -0.76998,-2.21691 0,-1.41593 0.77515,-2.22725 0.78031,-0.81131 2.13423,-0.81131 0.43925,0 0.85782,0.093 0.41858,0.0879 0.81132,0.26872 z"
         style="fill:#0000ff"
         id="path2028" />
      <path
         d="m -118.54874,152.87113 h 0.95602 v 4.74905 l 2.83702,-2.49597 h 1.21439 l -3.06957,2.70784 3.19877,3.07991 h -1.24024 l -2.94037,-2.8267 v 2.8267 h -0.95602 z"
         style="fill:#0000ff"
         id="path2030" />
      <path
         d="m -111.47425,153.19669 v 2.86803 h -0.8785 v -2.86803 z m 1.95336,0 v 2.86803 h -0.8785 v -2.86803 z"
         style="fill:#0000ff"
         id="path2032" />
      <path
         d="m -107.2523,159.59938 h 1.09037 v 1.31258 h -1.09037 z m 0,-4.15994 h 1.09037 v 1.31258 h -1.09037 z"
         style="stroke-width:0.264583"
         id="path2034" />
      <path
         d="m -100.23467,160.03346 h 1.705319 v -5.88593 l -1.855179,0.37207 v -0.95084 l 1.844844,-0.37207 h 1.04386 v 6.83677 h 1.705317 v 0.8785 h -4.444161 z"
         style="fill:#008000"
         id="path2036" />
      <path
         d="m -91.44453,153.88398 q -0.80615,0 -1.214392,0.79582 -0.403075,0.79064 -0.403075,2.38227 0,1.58646 0.403075,2.38228 0.408242,0.79065 1.214392,0.79065 0.811318,0 1.214393,-0.79065 0.408242,-0.79582 0.408242,-2.38228 0,-1.59163 -0.408242,-2.38227 -0.403075,-0.79582 -1.214393,-0.79582 z m 0,-0.82682 q 1.297075,0 1.979201,1.02836 0.687295,1.02319 0.687295,2.97655 0,1.9482 -0.687295,2.97656 -0.682126,1.02319 -1.979201,1.02319 -1.297074,0 -1.984368,-1.02319 -0.682127,-1.02836 -0.682127,-2.97656 0,-1.95336 0.682127,-2.97655 0.687294,-1.02836 1.984368,-1.02836 z"
         style="fill:#008000"
         id="path2038" />
      <path
         d="m -151.77658,175.12293 h 0.36174 q 0.72347,0 0.94051,-0.22221 0.2222,-0.22221 0.2222,-0.96118 v -1.28157 q 0,-0.80615 0.23255,-1.17305 0.23254,-0.3669 0.80615,-0.50643 -0.57361,-0.12919 -0.80615,-0.49609 -0.23255,-0.3669 -0.23255,-1.17822 v -1.28157 q 0,-0.7338 -0.2222,-0.95601 -0.21704,-0.22738 -0.94051,-0.22738 h -0.36174 v -0.73897 h 0.32556 q 1.28674,0 1.71566,0.38241 0.43408,0.37723 0.43408,1.51928 v 1.24023 q 0,0.76998 0.27905,1.0697 0.27905,0.29455 1.01285,0.29455 h 0.3204 v 0.73897 h -0.3204 q -0.7338,0 -1.01285,0.29973 -0.27905,0.29972 -0.27905,1.08003 v 1.23506 q 0,1.14205 -0.43408,1.52445 -0.42892,0.38241 -1.71566,0.38241 h -0.32556 z"
         style="stroke-width:0.264583"
         id="path2040" />
      <path
         d="m -156.61864,179.32938 v 9.43608 h -2.19108 v -0.73897 h 1.23507 v -7.95814 h -1.23507 v -0.73897 z"
         style="stroke-width:0.264583"
         id="path2042" />
    </g>
    <text
       xml:space="preserve"
       id="text865"
       style="font-style:normal;font-weight:normal;font-size:10.5833px;line-height:1.25;font-family:sans-serif;white-space:pre;shape-inside:url(#rect867);fill:#000000;fill-opacity:1;stroke:none;" />
    <text
       xml:space="preserve"
       style="font-style:normal;font-weight:normal;font-size:10.5833px;line-height:1.25;font-family:sans-serif;fill:#000000;fill-opacity:1;stroke:none;stroke-width:0.264583"
       x="118.34267"
       y="16.484043"
       id="text873"><tspan
         sodipodi:role="line"
         id="tspan871"
         x="118.34267"
         y="16.484043"
         style="stroke-width:0.264583"><tspan
   style="fill:#999999"
   id="tspan1002">&lt;?</tspan><tspan
   style="fill:#0000ff"
   id="tspan982">xml</tspan> <tspan
   style="fill:#00ffff"
   id="tspan984">version</tspan>=&quot;1.0&quot; <tspan
   style="fill:#c83737"
   id="tspan986">encoding</tspan>=&quot;UTF-8&quot;<tspan
   style="fill:#999999"
   id="tspan1004">?&gt;</tspan></tspan><tspan
         sodipodi:role="line"
         x="118.34267"
         y="29.713167"
         style="stroke-width:0.264583"
         id="tspan875" /><tspan
         sodipodi:role="line"
         x="118.34267"
         y="42.942291"
         style="stroke-width:0.264583"
         id="tspan877"><tspan
           style="fill:#999999"
           id="tspan1006">&lt;</tspan><tspan
           style="fill:#0000ff"
           id="tspan966">tienda</tspan><tspan
           style="fill:#999999"
           id="tspan1008">&gt;</tspan></tspan><tspan
         sodipodi:role="line"
         x="118.34267"
         y="56.171417"
         style="stroke-width:0.264583"
         id="tspan879">   <tspan
   style="fill:#999999"
   id="tspan1010"> &lt;</tspan><tspan
   style="fill:#0000ff"
   id="tspan962">producto</tspan><tspan
   style="fill:#999999"
   id="tspan1012">&gt;</tspan></tspan><tspan
         sodipodi:role="line"
         x="118.34267"
         y="69.400543"
         style="stroke-width:0.264583"
         id="tspan881">        <tspan
   style="fill:#999999"
   id="tspan1014">&lt;</tspan><tspan
   style="fill:#0000ff"
   id="tspan950">nombre</tspan><tspan
   style="fill:#999999"
   id="tspan1016">&gt;</tspan>Alhambra II<tspan
   style="fill:#999999"
   id="tspan1018">&lt;/</tspan><tspan
   style="fill:#0000ff"
   id="tspan956">nombre</tspan><tspan
   style="fill:#999999"
   id="tspan1022">&gt;</tspan></tspan><tspan
         sodipodi:role="line"
         x="118.34267"
         y="82.629669"
         style="stroke-width:0.264583"
         id="tspan883">        <tspan
   style="fill:#999999"
   id="tspan1024">&lt;</tspan><tspan
   style="fill:#0000ff"
   id="tspan952">descripcion</tspan><tspan
   style="fill:#999999"
   id="tspan1026">&gt;</tspan>Placa con FPGA ice40HX8K<tspan
   style="fill:#999999"
   id="tspan1028">&lt;/</tspan><tspan
   style="fill:#0000ff"
   id="tspan958">descripcion</tspan><tspan
   style="fill:#999999"
   id="tspan1030">&gt;</tspan></tspan><tspan
         sodipodi:role="line"
         x="118.34267"
         y="95.858788"
         style="stroke-width:0.264583"
         id="tspan885">        <tspan
   style="fill:#999999"
   id="tspan1032">&lt;</tspan><tspan
   style="fill:#0000ff"
   id="tspan954">stock</tspan><tspan
   style="fill:#999999"
   id="tspan1034">&gt;</tspan>3<tspan
   style="fill:#999999"
   id="tspan1036">&lt;/</tspan><tspan
   style="fill:#0000ff"
   id="tspan960">stock</tspan><tspan
   style="fill:#999999"
   id="tspan1038">&gt;</tspan></tspan><tspan
         sodipodi:role="line"
         x="118.34267"
         y="109.08791"
         style="stroke-width:0.264583"
         id="tspan887">    <tspan
   style="fill:#999999"
   id="tspan1040">&lt;/</tspan><tspan
   style="fill:#0000ff"
   id="tspan964">producto</tspan><tspan
   style="fill:#999999"
   id="tspan1042">&gt;</tspan></tspan><tspan
         sodipodi:role="line"
         x="118.34267"
         y="122.31704"
         style="stroke-width:0.264583"
         id="tspan889" /><tspan
         sodipodi:role="line"
         x="118.34267"
         y="135.54616"
         style="stroke-width:0.264583"
         id="tspan891">    <tspan
   style="fill:#999999"
   id="tspan1044">&lt;</tspan><tspan
   style="fill:#0000ff"
   id="tspan970">producto</tspan><tspan
   style="fill:#999999"
   id="tspan1046">&gt;</tspan></tspan><tspan
         sodipodi:role="line"
         x="118.34267"
         y="148.77528"
         style="stroke-width:0.264583"
         id="tspan893">        <tspan
   style="fill:#999999"
   id="tspan1048">&lt;</tspan><tspan
   style="fill:#0000ff"
   id="tspan972">nombre</tspan><tspan
   style="fill:#999999"
   id="tspan1050">&gt;</tspan>Icestick<tspan
   style="fill:#999999"
   id="tspan1052">&lt;/</tspan><tspan
   style="fill:#0000ff"
   id="tspan976">nombre</tspan><tspan
   style="fill:#999999"
   id="tspan1054">&gt;</tspan></tspan><tspan
         sodipodi:role="line"
         x="118.34267"
         y="162.00441"
         style="stroke-width:0.264583"
         id="tspan895">        <tspan
   style="fill:#999999"
   id="tspan1056">&lt;</tspan><tspan
   style="fill:#0000ff"
   id="tspan974">stock</tspan><tspan
   style="fill:#999999"
   id="tspan1058">&gt;</tspan>10<tspan
   style="fill:#999999"
   id="tspan1060">&lt;/</tspan><tspan
   style="fill:#0000ff"
   id="tspan978">stock</tspan><tspan
   style="fill:#999999"
   id="tspan1062">&gt;</tspan></tspan><tspan
         sodipodi:role="line"
         x="118.34267"
         y="175.23354"
         style="stroke-width:0.264583"
         id="tspan897">    <tspan
   style="fill:#999999"
   id="tspan1064">&lt;/</tspan><tspan
   style="fill:#0000ff"
   id="tspan980">producto</tspan><tspan
   style="fill:#999999"
   id="tspan1066">&gt;</tspan></tspan><tspan
         sodipodi:role="line"
         x="118.34267"
         y="188.46266"
         style="stroke-width:0.264583"
         id="tspan899"><tspan
           style="fill:#999999"
           id="tspan1068">&lt;/</tspan><tspan
           style="fill:#0000ff"
           id="tspan968">tienda</tspan><tspan
           style="fill:#999999"
           id="tspan1070">&gt;</tspan></tspan></text>
    <text
       xml:space="preserve"
       style="font-style:normal;font-weight:normal;font-size:10.5833px;line-height:1.25;font-family:sans-serif;fill:#000000;fill-opacity:1;stroke:none;stroke-width:0.264583"
       x="-137.38701"
       y="109.5805"
       id="text934"><tspan
         sodipodi:role="line"
         id="tspan932"
         x="-137.38701"
         y="109.5805"
         style="stroke-width:0.264583"></tspan><tspan
         sodipodi:role="line"
         x="-137.38701"
         y="122.80962"
         style="stroke-width:0.264583"
         id="tspan936" /></text>
    <path
       style="fill:#d4aa00;stroke:#d4aa00;stroke-width:0.529167;stroke-linecap:butt;stroke-linejoin:miter;stroke-miterlimit:4;stroke-dasharray:none;stroke-opacity:1;marker-end:url(#Arrow2Mend)"
       d="M -143.63157,36.965765 H 112.86442"
       id="path1078" />
    <path
       style="fill:#d4aa00;stroke:#d4aa00;stroke-width:0.529167;stroke-linecap:butt;stroke-linejoin:miter;stroke-miterlimit:4;stroke-dasharray:none;stroke-opacity:1;marker-end:url(#marker1402)"
       d="M -12.110428,65.615337 H 142.55401"
       id="path1398" />
    <path
       style="fill:#d4aa00;stroke:#d4aa00;stroke-width:0.529165;stroke-linecap:butt;stroke-linejoin:miter;stroke-miterlimit:4;stroke-dasharray:none;stroke-opacity:1;marker-end:url(#marker1454)"
       d="M 90.265057,78.737154 H 143.15473"
       id="path1450" />
    <path
       style="fill:#d4aa00;stroke:#d4aa00;stroke-width:0.529165;stroke-linecap:butt;stroke-linejoin:miter;stroke-miterlimit:4;stroke-dasharray:none;stroke-opacity:1;marker-end:url(#marker1508)"
       d="M -89.943494,90.70771 H 143.34495"
       id="path1504"
       sodipodi:nodetypes="cc" />
    <path
       style="fill:#d4aa00;stroke:#d4aa00;stroke-width:0.529165;stroke-linecap:butt;stroke-linejoin:miter;stroke-miterlimit:4;stroke-dasharray:none;stroke-opacity:1;marker-end:url(#marker1570)"
       d="M -139.22019,105.38153 H 129.32183"
       id="path1566"
       sodipodi:nodetypes="cc" />
    <path
       style="fill:#d4aa00;stroke:#d4aa00;stroke-width:0.529167;stroke-linecap:butt;stroke-linejoin:miter;stroke-miterlimit:4;stroke-dasharray:none;stroke-opacity:1;marker-end:url(#marker1710)"
       d="M -140.03381,52.250213 H 128.1685"
       id="path1636" />
    <rect
       style="fill:#d4aa00;stroke:#d4aa00;stroke-width:0.529167;stroke-linecap:round;stroke-miterlimit:4;stroke-dasharray:none"
       id="rect1752"
       width="55.378056"
       height="22.311655"
       x="-61.344219"
       y="-24.011784" />
    <text
       xml:space="preserve"
       style="font-style:normal;font-weight:normal;font-size:10.5833px;line-height:1.25;font-family:sans-serif;fill:#ffffff;fill-opacity:1;stroke:none;stroke-width:0.264583"
       x="-48.494671"
       y="-8.9865141"
       id="text1750"><tspan
         sodipodi:role="line"
         id="tspan1748"
         x="-48.494671"
         y="-8.9865141"
         style="font-style:normal;font-variant:normal;font-weight:bold;font-stretch:normal;font-family:sans-serif;-inkscape-font-specification:'sans-serif Bold';fill:#ffffff;stroke-width:0.264583">JSON</tspan></text>
    <rect
       style="fill:#d4aa00;stroke:#d4aa00;stroke-width:0.529167;stroke-linecap:round;stroke-miterlimit:4;stroke-dasharray:none"
       id="rect1754"
       width="55.378056"
       height="22.311655"
       x="260.2999"
       y="-24.011784" />
    <text
       xml:space="preserve"
       style="font-style:normal;font-weight:normal;font-size:10.5833px;line-height:1.25;font-family:sans-serif;fill:#ffffff;fill-opacity:1;stroke:none;stroke-width:0.264583"
       x="273.14944"
       y="-8.9865141"
       id="text1758"><tspan
         sodipodi:role="line"
         id="tspan1756"
         x="273.14944"
         y="-8.9865141"
         style="font-style:normal;font-variant:normal;font-weight:bold;font-stretch:normal;font-family:sans-serif;-inkscape-font-specification:'sans-serif Bold';fill:#ffffff;stroke-width:0.264583">XML</tspan></text>
  </g>
</svg>
